<svg width="531" height="89" viewBox="0 0 531 89" fill="none" xmlns="http://www.w3.org/2000/svg">
<path fill-rule="evenodd" clip-rule="evenodd" d="M62.4716 9.37861C57.7951 8.74989 51.3924 8.74996 43.7914 8.75C36.1901 8.74996 30.2049 8.74993 25.5286 9.37861C20.7305 10.0237 16.9007 11.3757 13.8882 14.3882C10.8757 17.4007 9.52369 21.2305 8.87861 26.0286C8.24989 30.7049 8.24996 37.1077 8.25 44.7086C8.24996 52.31 8.24993 58.2951 8.87861 62.9716C9.52373 67.7694 10.8757 71.5992 13.8882 74.6118C16.9007 77.6243 20.7305 78.9762 25.5286 79.6215C30.2049 80.25 36.6077 80.25 44.2086 80.25C51.81 80.25 57.7951 80.25 62.4716 79.6215C67.2694 78.9762 71.0992 77.6243 74.1118 74.6118C77.1243 71.5992 78.4762 67.7694 79.1215 62.9716C79.75 58.2951 79.75 52.31 79.75 44.7086C79.75 37.1076 79.75 30.7049 79.1215 26.0286C78.4762 21.2305 77.1243 17.4007 74.1118 14.3882C71.0992 11.3757 67.2694 10.0237 62.4716 9.37861ZM41.9331 28.5459C41.4212 27.1804 40.1485 26.2482 38.6921 26.1717C37.2357 26.0953 35.8727 26.8892 35.2204 28.1936L28.9006 40.8333H22C19.975 40.8333 18.3333 42.4749 18.3333 44.5C18.3333 46.5251 19.975 48.1667 22 48.1667H31.1667C32.5555 48.1667 33.8251 47.382 34.4462 46.1397L38.0193 38.9938L46.0669 60.454C46.5788 61.8195 47.8515 62.7519 49.3079 62.8282C50.7643 62.9048 52.1275 62.111 52.7795 60.8064L59.0993 48.1667H66C68.0251 48.1667 69.6667 46.5251 69.6667 44.5C69.6667 42.4749 68.0251 40.8333 66 40.8333H56.8333C55.4444 40.8333 54.175 41.618 53.5539 42.8603L49.9807 50.0062L41.9331 28.5459Z" fill="#E7E7E7"/>
<path d="M106.232 69V19.0886H124.2C127.367 19.0886 130.281 19.3181 132.943 19.7771C135.605 20.1901 137.923 20.9474 139.896 22.0489C141.916 23.1504 143.453 24.6879 144.509 26.6614C145.61 28.589 146.161 31.0903 146.161 34.1653C146.161 37.5616 145.335 40.3842 143.683 42.633C142.076 44.836 139.644 46.5342 136.385 47.7274L148.364 69H136.867L125.99 49.3797H116.283V69H106.232ZM116.283 40.9808H124.613C126.679 40.9808 128.537 40.8431 130.19 40.5677C131.888 40.2465 133.219 39.6039 134.182 38.6401C135.146 37.6763 135.628 36.2306 135.628 34.303C135.628 32.3754 135.146 30.9297 134.182 29.9659C133.219 29.0021 131.888 28.3595 130.19 28.0383C128.537 27.717 126.679 27.5564 124.613 27.5564H116.283V40.9808ZM168.635 38.5024C167.304 38.5024 165.973 38.7549 164.642 39.2597C163.357 39.7187 162.233 40.5448 161.269 41.7381C160.305 42.9314 159.617 44.6065 159.204 46.7636H177.516C177.332 44.2853 176.437 42.2888 174.831 40.7743C173.271 39.2597 171.205 38.5024 168.635 38.5024ZM177.791 57.7097H186.81C185.433 61.6108 183.115 64.617 179.857 66.7282C176.644 68.8394 173.041 69.895 169.048 69.895C165.055 69.895 161.59 69.0918 158.653 67.4854C155.762 65.8332 153.513 63.5384 151.906 60.6011C150.3 57.6638 149.497 54.2446 149.497 50.3435C149.497 46.3965 150.346 43.0002 152.044 40.1547C153.788 37.2633 156.106 35.0373 158.997 33.4769C161.935 31.8705 165.147 31.0674 168.635 31.0674C172.445 31.0674 175.726 31.9394 178.48 33.6834C181.234 35.4274 183.368 37.814 184.882 40.8431C186.397 43.8722 187.154 47.3373 187.154 51.2384C187.154 51.4679 187.154 51.7433 187.154 52.0646C187.154 52.3399 187.131 52.6612 187.085 53.0284H159.135C159.456 55.2772 160.099 57.0901 161.063 58.467C162.026 59.8438 163.197 60.8306 164.574 61.4272C165.95 62.0239 167.373 62.3222 168.842 62.3222C171.182 62.3222 173.087 61.8862 174.556 61.0142C176.024 60.1422 177.103 59.0407 177.791 57.7097ZM225.445 69H215.876C215.784 68.128 215.716 67.3248 215.67 66.5905C215.624 65.8103 215.601 65.053 215.601 64.3187C214.316 66.2463 212.618 67.669 210.506 68.5869C208.395 69.459 205.917 69.895 203.071 69.895C200.731 69.895 198.597 69.459 196.669 68.5869C194.741 67.7149 193.181 66.4757 191.988 64.8694C190.84 63.2631 190.267 61.3355 190.267 59.0866C190.267 56.1034 191.299 53.7397 193.365 51.9957C195.476 50.2058 198.39 48.8748 202.108 48.0028C205.871 47.0849 210.185 46.4194 215.05 46.0064V45.1802C215.05 42.6101 214.408 40.7743 213.123 39.6728C211.883 38.5713 210.185 38.0205 208.028 38.0205C205.917 38.0205 204.242 38.5254 203.003 39.5351C201.763 40.4989 201.029 41.9446 200.8 43.8722H191.643C191.873 41.3939 192.63 39.1909 193.915 37.2633C195.246 35.2898 197.105 33.7523 199.492 32.6508C201.878 31.5034 204.77 30.9297 208.166 30.9297C213.398 30.9297 217.414 32.1689 220.213 34.6472C223.013 37.0797 224.413 41.0267 224.413 46.4883V54.6118C224.413 57.3655 224.505 60.0274 224.688 62.5976C224.872 65.1677 225.124 67.3019 225.445 69ZM215.394 53.4414V52.0646C212.365 52.3399 209.703 52.7071 207.409 53.1661C205.16 53.625 203.393 54.2675 202.108 55.0937C200.868 55.9198 200.249 57.0672 200.249 58.5358C200.249 59.9586 200.8 61.106 201.901 61.978C203.003 62.8041 204.425 63.2172 206.169 63.2172C207.867 63.2172 209.405 62.9418 210.782 62.391C212.159 61.7944 213.26 60.7847 214.086 59.3619C214.958 57.9392 215.394 55.9657 215.394 53.4414ZM257.034 55.9198H266.121C265.433 59.1325 264.171 61.7715 262.335 63.8368C260.499 65.8562 258.319 67.3707 255.795 68.3804C253.316 69.3901 250.769 69.895 248.153 69.895C244.298 69.895 240.993 69.0688 238.24 67.4166C235.532 65.7644 233.443 63.4696 231.975 60.5323C230.552 57.595 229.841 54.1987 229.841 50.3435C229.841 46.5342 230.598 43.1838 232.113 40.2924C233.673 37.4009 235.853 35.1521 238.653 33.5457C241.452 31.8935 244.688 31.0674 248.36 31.0674C251.113 31.0674 253.683 31.5952 256.07 32.6508C258.502 33.6605 260.568 35.2209 262.266 37.3321C264.01 39.3974 265.157 41.9905 265.708 45.1114H256.69C256.231 42.9543 255.267 41.348 253.798 40.2924C252.329 39.1909 250.608 38.6401 248.635 38.6401C247.12 38.6401 245.675 39.0532 244.298 39.8793C242.921 40.6595 241.796 41.9217 240.924 43.6657C240.052 45.3638 239.616 47.6127 239.616 50.4123C239.616 53.2578 240.052 55.5526 240.924 57.2966C241.796 59.0407 242.921 60.3258 244.298 61.1519C245.675 61.9321 247.12 62.3222 248.635 62.3222C250.93 62.3222 252.788 61.7256 254.211 60.5323C255.68 59.2931 256.621 57.7556 257.034 55.9198ZM290.692 69H284.427C281.674 69 279.494 68.7476 277.887 68.2427C276.281 67.7379 275.134 66.7741 274.445 65.3513C273.803 63.8827 273.481 61.7715 273.481 59.0177V38.9155H267.63V31.9623H273.481V22.1177H282.982V31.9623H290.692V38.9155H282.982V57.4343C282.982 59.2702 283.257 60.4864 283.808 61.083C284.405 61.6338 285.621 61.9091 287.457 61.9091H290.692V69ZM310.955 69V19.0886H326.376C330.414 19.0886 334.155 19.5017 337.597 20.3278C341.039 21.1539 344.045 22.5308 346.616 24.4584C349.186 26.3401 351.182 28.8873 352.605 32.1C354.074 35.2668 354.808 39.2368 354.808 44.0099C354.808 48.783 354.074 52.7759 352.605 55.9886C351.182 59.2013 349.186 61.7715 346.616 63.6991C344.045 65.5808 341.039 66.9347 337.597 67.7608C334.155 68.5869 330.414 69 326.376 69H310.955ZM321.006 60.5323H326.444C328.739 60.5323 330.942 60.3487 333.053 59.9815C335.21 59.6144 337.115 58.88 338.767 57.7786C340.466 56.6312 341.796 54.956 342.76 52.753C343.77 50.55 344.275 47.6356 344.275 44.0099C344.275 40.3842 343.77 37.4927 342.76 35.3357C341.796 33.1327 340.466 31.4804 338.767 30.3789C337.115 29.2315 335.21 28.4743 333.053 28.1071C330.942 27.7399 328.739 27.5564 326.444 27.5564H321.006V60.5323ZM377.793 69.895C375.361 69.895 372.997 69.5049 370.703 68.7246C368.454 67.9444 366.434 66.7741 364.644 65.2136C362.854 63.6073 361.432 61.5879 360.376 59.1554C359.32 56.6771 358.793 53.7627 358.793 50.4123C358.793 47.062 359.32 44.1705 360.376 41.7381C361.432 39.3056 362.854 37.3092 364.644 35.7487C366.434 34.1424 368.454 32.972 370.703 32.2377C372.997 31.4575 375.361 31.0674 377.793 31.0674C380.226 31.0674 382.567 31.4575 384.815 32.2377C387.064 32.972 389.084 34.1424 390.874 35.7487C392.664 37.3092 394.086 39.3056 395.142 41.7381C396.198 44.1705 396.725 47.062 396.725 50.4123C396.725 53.7627 396.198 56.6771 395.142 59.1554C394.086 61.5879 392.664 63.6073 390.874 65.2136C389.084 66.7741 387.064 67.9444 384.815 68.7246C382.567 69.5049 380.226 69.895 377.793 69.895ZM377.793 62.3222C379.446 62.3222 380.96 61.9321 382.337 61.1519C383.76 60.3258 384.884 59.0407 385.71 57.2966C386.537 55.5526 386.95 53.2578 386.95 50.4123C386.95 47.5668 386.514 45.295 385.642 43.5968C384.815 41.8528 383.714 40.5907 382.337 39.8105C380.96 39.0302 379.446 38.6401 377.793 38.6401C376.141 38.6401 374.604 39.0302 373.181 39.8105C371.804 40.5907 370.68 41.8528 369.808 43.5968C368.981 45.295 368.568 47.5668 368.568 50.4123C368.568 53.2578 368.981 55.5526 369.808 57.2966C370.68 59.0407 371.804 60.3258 373.181 61.1519C374.604 61.9321 376.141 62.3222 377.793 62.3222ZM427.501 55.9198H436.589C435.9 59.1325 434.638 61.7715 432.802 63.8368C430.967 65.8562 428.787 67.3707 426.262 68.3804C423.784 69.3901 421.237 69.895 418.621 69.895C414.765 69.895 411.461 69.0688 408.707 67.4166C405.999 65.7644 403.911 63.4696 402.443 60.5323C401.02 57.595 400.308 54.1987 400.308 50.3435C400.308 46.5342 401.066 43.1838 402.58 40.2924C404.141 37.4009 406.321 35.1521 409.12 33.5457C411.92 31.8935 415.156 31.0674 418.827 31.0674C421.581 31.0674 424.151 31.5952 426.538 32.6508C428.97 33.6605 431.035 35.2209 432.734 37.3321C434.478 39.3974 435.625 41.9905 436.176 45.1114H427.157C426.698 42.9543 425.734 41.348 424.266 40.2924C422.797 39.1909 421.076 38.6401 419.103 38.6401C417.588 38.6401 416.142 39.0532 414.765 39.8793C413.389 40.6595 412.264 41.9217 411.392 43.6657C410.52 45.3638 410.084 47.6127 410.084 50.4123C410.084 53.2578 410.52 55.5526 411.392 57.2966C412.264 59.0407 413.389 60.3258 414.765 61.1519C416.142 61.9321 417.588 62.3222 419.103 62.3222C421.397 62.3222 423.256 61.7256 424.679 60.5323C426.148 59.2931 427.088 57.7556 427.501 55.9198ZM461.16 69H454.895C452.141 69 449.961 68.7476 448.355 68.2427C446.749 67.7379 445.601 66.7741 444.913 65.3513C444.27 63.8827 443.949 61.7715 443.949 59.0177V38.9155H438.097V31.9623H443.949V22.1177H453.449V31.9623H461.16V38.9155H453.449V57.4343C453.449 59.2702 453.725 60.4864 454.276 61.083C454.872 61.6338 456.088 61.9091 457.924 61.9091H461.16V69ZM482.911 69.895C480.479 69.895 478.115 69.5049 475.82 68.7246C473.571 67.9444 471.552 66.7741 469.762 65.2136C467.972 63.6073 466.549 61.5879 465.494 59.1554C464.438 56.6771 463.91 53.7627 463.91 50.4123C463.91 47.062 464.438 44.1705 465.494 41.7381C466.549 39.3056 467.972 37.3092 469.762 35.7487C471.552 34.1424 473.571 32.972 475.82 32.2377C478.115 31.4575 480.479 31.0674 482.911 31.0674C485.344 31.0674 487.684 31.4575 489.933 32.2377C492.182 32.972 494.201 34.1424 495.991 35.7487C497.781 37.3092 499.204 39.3056 500.26 41.7381C501.315 44.1705 501.843 47.062 501.843 50.4123C501.843 53.7627 501.315 56.6771 500.26 59.1554C499.204 61.5879 497.781 63.6073 495.991 65.2136C494.201 66.7741 492.182 67.9444 489.933 68.7246C487.684 69.5049 485.344 69.895 482.911 69.895ZM482.911 62.3222C484.563 62.3222 486.078 61.9321 487.455 61.1519C488.878 60.3258 490.002 59.0407 490.828 57.2966C491.654 55.5526 492.067 53.2578 492.067 50.4123C492.067 47.5668 491.631 45.295 490.759 43.5968C489.933 41.8528 488.832 40.5907 487.455 39.8105C486.078 39.0302 484.563 38.6401 482.911 38.6401C481.259 38.6401 479.721 39.0302 478.299 39.8105C476.922 40.5907 475.797 41.8528 474.925 43.5968C474.099 45.295 473.686 47.5668 473.686 50.4123C473.686 53.2578 474.099 55.5526 474.925 57.2966C475.797 59.0407 476.922 60.3258 478.299 61.1519C479.721 61.9321 481.259 62.3222 482.911 62.3222ZM507.629 69V31.9623H516.785V38.7778C517.703 36.6207 519.011 34.9226 520.709 33.6834C522.407 32.4442 524.519 31.7787 527.043 31.687C527.318 31.687 527.594 31.687 527.869 31.687C528.19 31.687 528.512 31.7099 528.833 31.7558V41.2562C528.19 41.1644 527.617 41.1185 527.112 41.1185C526.607 41.0726 526.102 41.0496 525.597 41.0496C522.798 41.0496 520.686 41.7381 519.264 43.1149C517.841 44.4459 517.129 46.7866 517.129 50.1369V69H507.629Z" fill="#E7E7E7"/>
</svg>
